<?xml version="1.0" encoding="utf-8"?>
<!-- Generator: Adobe Illustrator 22.0.1, SVG Export Plug-In . SVG Version: 6.00 Build 0)  -->
<svg version="1.1" id="Слой_2_1_" xmlns="http://www.w3.org/2000/svg" xmlns:xlink="http://www.w3.org/1999/xlink" x="0px"
	 y="0px" viewBox="0 0 141.7 141.7" style="enable-background:new 0 0 141.7 141.7;" xml:space="preserve">
<style type="text/css">
	.st0{fill:#FC4802;}
</style>
<g>
	<g>
		<ellipse class="st0" cx="93.8" cy="65.9" rx="2.7" ry="2.7"/>
	</g>
</g>
<g>
	<g>
		<path class="st0" d="M94.3,77.9c-1.6-0.2-2.9,0.9-3.2,2.3c-0.7,5.2-5.2,9.3-11.7,11.3c-7,2-16.7,1.4-22.6-5
			c-1.1-1.1-2.7-1.1-3.8-0.2c-1.1,1.1-1.1,2.7-0.2,3.8c3.4,3.6,8.1,6.3,13.6,7.2c1.8,0.5,3.8,0.7,5.9,0.7c3.2,0,6.1-0.5,9-1.4
			c8.6-2.7,14.5-8.6,15.6-15.8C97,79.5,95.9,78.1,94.3,77.9z"/>
	</g>
</g>
<g>
	<g>
		<path class="st0" d="M133.2,53.3c-5-5.9-12-9.7-20.6-11.1c8.1-5.4,15.1-10.8,20.1-15.6c7.7-7.2,10.2-12.2,7.9-15.8
			c-2.3-4.1-9.3-4.1-21.5,0c-10.4,3.4-23.3,9.5-36.4,16.9c-2.3,1.4-4.5,2.7-6.8,4.1c-1.6-4.5-0.5-9.7,2.9-14.2
			c2.7-3.4,3.4-7.7,1.6-11.3s-5.6-5.9-10.6-5.9h-0.2c-16.9,0-33.7,6.8-47,18.7C9.8,31.6,1.9,47.6,0.3,64.6
			c-1.8,20.6,4.7,40,18.5,54.9c13.6,14.7,32.8,23,52.6,23c10.6,0,20.8-2,29.8-5.9c8.4-3.6,15.8-8.6,22.1-14.9
			c5.9-5.9,10.4-12.6,13.6-20.3c3.2-7.2,4.7-14.7,4.7-21.9C142.2,69.3,139,60,133.2,53.3z M76.5,38.4c2.9-1.8,6.1-3.6,9.3-5.4
			c12.2-7,24.2-12.6,33.9-16c10.8-3.8,15.1-3.6,16.3-2.9c0,0.7-0.9,3.6-7.9,9.9c-5.9,5.4-14.5,11.7-24.2,17.8
			c-3.2,2-6.3,3.8-9.5,5.6c-4.5,2.5-9,5-13.3,7.2c-0.9-2.5-2-5-3.4-7.2c-1.4-2.3-2.9-4.5-4.5-6.3C74,39.9,75.3,39,76.5,38.4z
			 M75.8,56.9c-7.9,3.6-15.1,6.6-21,8.1c-0.2-1.4-0.9-2.7-1.6-4.1c-0.7-1.1-1.6-2.3-2.7-3.2c4.3-4.1,10.4-9,17.6-13.8
			c1.6,1.8,3.2,3.8,4.3,6.1C74,51.9,74.9,54.4,75.8,56.9z M136.3,79.7c-0.5,27.6-25.3,57.4-64.8,57.4c-18.3,0-36.1-7.7-48.6-21.2
			C10.3,102.1,4.2,84,6,65c2.7-32.5,31.6-59,64.1-59h0.2c2.7,0,4.7,1.1,5.6,2.7c0.9,1.6,0.5,3.6-0.9,5.4c-5,6.3-6.3,14.2-3.4,20.8
			c-1.6,0.9-2.9,2-4.3,2.9l0,0c-8.8,5.9-16.5,12-21.5,16.9c-3.8-1.4-7.9-0.9-11.5,1.1c-5.9,3.4-13.3,18.7-14.9,21.9
			c-0.5,0.9-0.5,1.8,0,2.5c0.5,0.7,1.4,1.4,2.3,1.4c1.6,0.2,5.9,0.5,10.8,0.5c5.9,0,12.6-0.5,15.8-2.3c3.4-2,5.9-5.2,6.6-9
			c6.8-1.8,15.8-5.2,25.5-9.9c5.4-2.7,11.1-5.6,16.5-8.8c2.9-1.6,5.6-3.4,8.4-5l0,0C128.6,47.6,136.5,64.3,136.3,79.7z M49.6,68.4
			c-0.2,2.7-1.8,5.2-4.1,6.8c-2.7,1.6-11.7,1.8-19.2,1.4c3.4-6.6,8.1-14.2,10.8-15.8c2.5-1.4,5.4-1.6,8.1-0.2
			c1.4,0.7,2.5,1.8,3.4,3.2C49.1,65,49.6,66.6,49.6,68.4z"/>
	</g>
</g>
<g>
	<g>
		<path class="st0" d="M49.1,17.8c-6.1,0-11.1,5-11.1,11.1s5,11.1,11.1,11.1s11.1-5,11.1-11.1S55.5,17.8,49.1,17.8z M49.1,34.3
			c-3.2,0-5.6-2.5-5.6-5.6S46,23,49.1,23s5.6,2.5,5.6,5.6S52.3,34.3,49.1,34.3z"/>
	</g>
</g>
<g>
	<g>
		<path class="st0" d="M35.1,92.3c-6.1,0-11.1,5-11.1,11.1s5,11.1,11.1,11.1s11.1-5,11.1-11.1S41.4,92.3,35.1,92.3z M35.1,108.8
			c-3.2,0-5.6-2.5-5.6-5.6c0-3.2,2.5-5.6,5.6-5.6s5.6,2.5,5.6,5.6C40.8,106.3,38.3,108.8,35.1,108.8z"/>
	</g>
</g>
<g>
	<g>
		<path class="st0" d="M63.1,108.8c-6.1,0-11.1,5-11.1,11.1S57,131,63.1,131s11.1-5,11.1-11.1C74.4,113.8,69.2,108.8,63.1,108.8z
			 M63.1,125.5c-3.2,0-5.6-2.5-5.6-5.6s2.5-5.6,5.6-5.6s5.6,2.5,5.6,5.6C68.8,123.1,66.3,125.5,63.1,125.5z"/>
	</g>
</g>
<g>
	<g>
		<path class="st0" d="M96.8,103.4c-6.1,0-11.1,5-11.1,11.1s5,11.1,11.1,11.1s11.1-5,11.1-11.1S102.9,103.4,96.8,103.4z M96.8,119.9
			c-3.2,0-5.6-2.5-5.6-5.6c0-3.2,2.5-5.4,5.6-5.4c3.2,0,5.6,2.5,5.6,5.6C102.4,117.6,99.7,119.9,96.8,119.9z"/>
	</g>
</g>
<g>
	<g>
		<path class="st0" d="M118.9,75.6c-6.1,0-11.1,5-11.1,11.1s5,11.1,11.1,11.1s11.1-5,11.1-11.1S125.2,75.6,118.9,75.6z M118.9,92.3
			c-3.2,0-5.6-2.5-5.6-5.6c0-3.2,2.5-5.6,5.6-5.6c3.2,0,5.6,2.5,5.6,5.6C124.6,89.9,122.1,92.3,118.9,92.3z"/>
	</g>
</g>
</svg>
