<?xml version="1.0" encoding="utf-8"?>
<!-- Generator: Adobe Illustrator 22.0.1, SVG Export Plug-In . SVG Version: 6.00 Build 0)  -->
<svg version="1.1" id="Белые" xmlns="http://www.w3.org/2000/svg" xmlns:xlink="http://www.w3.org/1999/xlink" x="0px" y="0px"
	 viewBox="0 0 63 63" style="enable-background:new 0 0 63 63;" xml:space="preserve">
<style type="text/css">
	.st0{fill:#FC4802;}
</style>
<g>
	<path class="st0" d="M54.5,32.5H19.2c-0.8,0-1.5-0.7-1.5-1.5s0.7-1.5,1.5-1.5h35.3c0.8,0,1.5,0.7,1.5,1.5S55.3,32.5,54.5,32.5z"/>
	<path class="st0" d="M21.5,47.5c-0.4,0-0.8-0.1-1.1-0.4l-15-15c-0.6-0.6-0.6-1.5,0-2.1l15-15c0.6-0.6,1.5-0.6,2.1,0s0.6,1.5,0,2.1
		L8.6,31l13.9,13.9c0.6,0.6,0.6,1.5,0,2.1C22.3,47.4,21.9,47.5,21.5,47.5z"/>
</g>
</svg>
