<?xml version="1.0" encoding="utf-8"?>
<!-- Generator: Adobe Illustrator 22.0.1, SVG Export Plug-In . SVG Version: 6.00 Build 0)  -->
<svg version="1.1" id="Слой_1" xmlns="http://www.w3.org/2000/svg" xmlns:xlink="http://www.w3.org/1999/xlink" x="0px" y="0px"
	 viewBox="0 0 484 484" style="enable-background:new 0 0 484 484;" xml:space="preserve">
<style type="text/css">
	.st0{fill:#D34302;}
</style>
<path class="st0" d="M428.2,19.5c-26-26-68.1-26-94.1,0l-23.6,23.7L59.7,293.8l-0.5,0.5c-0.1,0.1-0.1,0.3-0.3,0.3
	c-0.3,0.4-0.7,0.8-0.9,1.2c0,0.1-0.1,0.1-0.1,0.3c-0.3,0.4-0.4,0.7-0.7,1.1c-0.1,0.1-0.1,0.3-0.3,0.4c-0.1,0.4-0.3,0.7-0.4,1.1
	c0,0.1-0.1,0.1-0.1,0.3L0.7,466.2c-1.6,4.8-0.4,10,3.2,13.6c2.5,2.5,5.9,3.9,9.5,3.9c1.4,0,2.9-0.2,4.3-0.7l167.2-55.8
	c0.1,0,0.1,0,0.3-0.1c0.4-0.1,0.8-0.3,1.2-0.5c0.1,0,0.2-0.1,0.3-0.1c0.4-0.3,0.9-0.5,1.3-0.8c0.4-0.3,0.8-0.7,1.2-0.9
	c0.1-0.1,0.3-0.1,0.3-0.3c0.1-0.1,0.4-0.3,0.5-0.5l274.4-274.4c26-26,26-68.1,0-94.1L428.2,19.5z M180.6,395.9l-92.7-92.7
	L319.8,71.4l92.7,92.7L180.6,395.9z M74.9,327.9l80.9,80.9L34.3,449.3L74.9,327.9z M445.5,130.9l-14.1,14.2l-92.7-92.7L353,38.2
	c15.6-15.6,40.9-15.6,56.4,0l36.2,36.2C461.1,90.1,461,115.3,445.5,130.9z"/>
</svg>
