<?xml version="1.0" encoding="utf-8"?>
<!-- Generator: Adobe Illustrator 22.0.1, SVG Export Plug-In . SVG Version: 6.00 Build 0)  -->
<svg version="1.1" id="Белые" xmlns="http://www.w3.org/2000/svg" xmlns:xlink="http://www.w3.org/1999/xlink" x="0px" y="0px"
	 viewBox="0 0 141.7 141.7" style="enable-background:new 0 0 141.7 141.7;" xml:space="preserve">
<path d="M75.8,142H66c-4.2,0-7.7-3.5-7.7-7.7v-6.7c0-0.9-0.6-1.7-1.5-2c-5.1-1.3-10-3.3-14.5-6l0,0c-1.4-0.8-2.5,0.3-2.5,0.3
	l-4.8,4.8c-1.5,1.5-3.4,2.3-5.4,2.3l0,0c-2.1,0-4-0.8-5.4-2.3l-6.9-6.9c-1.5-1.5-2.3-3.4-2.3-5.4c0-2.1,0.8-4,2.3-5.4l4.8-4.8
	c0.7-0.7,0.8-1.7,0.3-2.5c-2.7-4.5-4.7-9.4-6-14.5c-0.2-0.9-1-1.5-2-1.5H7.6c-4.2,0-7.7-3.5-7.7-7.7v-9.7c0-4.2,3.5-7.7,7.7-7.7h6.7
	c0.9,0,1.7-0.6,2-1.5c1.3-5.1,3.3-10,6-14.5c0.5-0.8,0.3-1.8-0.3-2.5l-4.8-4.8c-1.5-1.5-2.3-3.4-2.3-5.4c0-2.1,0.8-4,2.3-5.4
	l6.9-6.9c1.4-1.5,3.4-2.3,5.4-2.3c0,0,0,0,0,0c2.1,0,4,0.8,5.4,2.3l4.8,4.8c0.7,0.7,1.7,0.8,2.5,0.3c4.5-2.7,9.4-4.7,14.5-6
	c0.9-0.2,1.5-1,1.5-2V7.7C58.3,3.5,61.8,0,66,0h9.7c4.2,0,7.7,3.5,7.7,7.7v6.7c0,0.9,0.6,1.7,1.5,2c5.1,1.3,10,3.3,14.5,6
	c0.8,0.5,1.8,0.3,2.5-0.3l4.8-4.8c1.5-1.5,3.4-2.3,5.4-2.3c2.1,0,4,0.8,5.4,2.3l6.9,6.9c1.5,1.5,2.3,3.4,2.3,5.4
	c0,2.1-0.8,4-2.3,5.4l-4.8,4.8c-0.7,0.7-0.8,1.7-0.3,2.5c2.7,4.5,4.7,9.4,6,14.5c0.2,0.9,1,1.5,2,1.5h6.7c4.2,0,7.7,3.5,7.7,7.7v9.7
	c0,4.2-3.5,7.7-7.7,7.7h-6.7c-0.9,0-1.7,0.6-2,1.5c-1.3,5.1-3.3,10-6,14.5c-0.5,0.8-0.3,1.8,0.3,2.5l4.8,4.8
	c1.5,1.4,2.3,3.4,2.3,5.4c0,2.1-0.8,4-2.3,5.5l-6.9,6.9c-1.4,1.5-3.4,2.3-5.4,2.3c-2.1,0-4-0.8-5.4-2.3l-4.8-4.8
	c-0.7-0.7-1.7-0.8-2.5-0.3c-4.5,2.7-9.4,4.7-14.5,6c-0.9,0.2-1.5,1-1.5,2v6.7C83.5,138.6,80,142,75.8,142z M44.8,115.3
	c4.1,2.4,8.6,4.3,13.2,5.5c3.1,0.8,5.3,3.6,5.3,6.8v6.7c0,1.5,1.2,2.7,2.7,2.7h9.7c1.5,0,2.7-1.2,2.7-2.7v-6.7c0-3.2,2.2-6,5.3-6.8
	c4.6-1.2,9.1-3,13.2-5.5c2.8-1.6,6.3-1.2,8.6,1.1l4.8,4.8c1,1,2.8,1,3.8,0l6.9-6.9c0.5-0.5,0.8-1.2,0.8-1.9c0-0.7-0.3-1.4-0.8-1.9
	l-4.8-4.8c-2.3-2.3-2.7-5.8-1.1-8.6c2.4-4.1,4.3-8.6,5.5-13.2c0.8-3.1,3.6-5.3,6.8-5.3h6.7c1.5,0,2.7-1.2,2.7-2.7v-9.7
	c0-1.5-1.2-2.7-2.7-2.7h-6.7c-3.2,0-6-2.2-6.8-5.3c-1.2-4.6-3-9.1-5.5-13.2c-1.6-2.8-1.2-6.3,1.1-8.6l4.8-4.8
	c0.5-0.5,0.8-1.2,0.8-1.9c0-0.7-0.3-1.4-0.8-1.9l-6.9-6.9c-1-1-2.8-1-3.8,0l-4.8,4.8c-2.3,2.3-5.8,2.7-8.6,1.1
	c-4.1-2.4-8.6-4.3-13.2-5.5c-3.1-0.8-5.3-3.6-5.3-6.8V7.7c0-1.5-1.2-2.7-2.7-2.7H66c-1.5,0-2.7,1.2-2.7,2.7v6.7c0,3.2-2.2,6-5.3,6.8
	c-4.6,1.2-9.1,3-13.2,5.5c-2.8,1.6-6.3,1.2-8.6-1.1l-4.8-4.8c-1-1-2.8-1-3.8,0l-6.9,6.9C20.3,28.3,20,29,20,29.7
	c0,0.7,0.3,1.4,0.8,1.9l4.8,4.8c2.3,2.3,2.7,5.8,1.1,8.6c-2.4,4.1-4.3,8.6-5.5,13.2c-0.8,3.1-3.6,5.3-6.8,5.3H7.6
	c-1.5,0-2.7,1.2-2.7,2.7v9.7c0,1.5,1.2,2.7,2.7,2.7h6.7c3.2,0,6,2.2,6.8,5.3c1.2,4.6,3,9.1,5.5,13.2c1.6,2.8,1.2,6.3-1.1,8.6
	l-4.8,4.8c-0.5,0.5-0.8,1.2-0.8,1.9c0,0.7,0.3,1.4,0.8,1.9l6.9,6.9c1,1,2.8,1,3.8,0l4.8-4.8C38.1,114.5,41.6,113.4,44.8,115.3
	L44.8,115.3z"/>
<path d="M70.9,98.2c-15,0-27.2-12.2-27.2-27.2c0-15,12.2-27.2,27.2-27.2S98.1,56,98.1,71C98.1,86,85.9,98.2,70.9,98.2z M70.9,48.8
	c-12.2,0-22.2,9.9-22.2,22.2s9.9,22.2,22.2,22.2S93.1,83.2,93.1,71S83.1,48.8,70.9,48.8z"/>
</svg>
